<svg xmlns="http://www.w3.org/2000/svg" viewBox="0 0 160 156">
  <g opacity="0.96">
<g transform="translate(88.86,79.56) rotate(116.6) scale(0.85)">
    <ellipse cx="0" cy="-6.5" rx="5.2" ry="7.2" fill="#a9c6ec"/>
    <ellipse cx="0" cy="6.5" rx="5.2" ry="7.2" fill="#a9c6ec"/>
    <ellipse cx="-6.5" cy="0" rx="7.2" ry="5.2" fill="#a9c6ec"/>
    <ellipse cx="6.5" cy="0" rx="7.2" ry="5.2" fill="#a9c6ec"/>
    <circle cx="0" cy="0" r="2.3" fill="#efe1c9"/>
  </g>
<g transform="translate(74.21,84.89) rotate(234.3) scale(0.85)">
    <ellipse cx="0" cy="-6.5" rx="5.2" ry="7.2" fill="#c9a8e0"/>
    <ellipse cx="0" cy="6.5" rx="5.2" ry="7.2" fill="#c9a8e0"/>
    <ellipse cx="-6.5" cy="0" rx="7.2" ry="5.2" fill="#c9a8e0"/>
    <ellipse cx="6.5" cy="0" rx="7.2" ry="5.2" fill="#c9a8e0"/>
    <circle cx="0" cy="0" r="2.3" fill="#f3e9dc"/>
  </g>
<g transform="translate(76.92,69.54) rotate(131.6) scale(0.85)">
    <ellipse cx="0" cy="-6.5" rx="5.2" ry="7.2" fill="#c9a8e0"/>
    <ellipse cx="0" cy="6.5" rx="5.2" ry="7.2" fill="#c9a8e0"/>
    <ellipse cx="-6.5" cy="0" rx="7.2" ry="5.2" fill="#c9a8e0"/>
    <ellipse cx="6.5" cy="0" rx="7.2" ry="5.2" fill="#c9a8e0"/>
    <circle cx="0" cy="0" r="2.3" fill="#f3e9dc"/>
  </g>
<g transform="translate(101.25,83.41) rotate(13.5) scale(1.00)">
    <ellipse cx="0" cy="-6.5" rx="5.2" ry="7.2" fill="#b9d1ec"/>
    <ellipse cx="0" cy="6.5" rx="5.2" ry="7.2" fill="#b9d1ec"/>
    <ellipse cx="-6.5" cy="0" rx="7.2" ry="5.2" fill="#b9d1ec"/>
    <ellipse cx="6.5" cy="0" rx="7.2" ry="5.2" fill="#b9d1ec"/>
    <circle cx="0" cy="0" r="2.3" fill="#efe1c9"/>
  </g>
<g transform="translate(91.00,96.10) rotate(25.1) scale(1.00)">
    <ellipse cx="0" cy="-6.5" rx="5.2" ry="7.2" fill="#c9a8e0"/>
    <ellipse cx="0" cy="6.5" rx="5.2" ry="7.2" fill="#c9a8e0"/>
    <ellipse cx="-6.5" cy="0" rx="7.2" ry="5.2" fill="#c9a8e0"/>
    <ellipse cx="6.5" cy="0" rx="7.2" ry="5.2" fill="#c9a8e0"/>
    <circle cx="0" cy="0" r="2.3" fill="#efe1c9"/>
  </g>
<g transform="translate(74.31,98.19) rotate(21.3) scale(1.00)">
    <ellipse cx="0" cy="-6.5" rx="5.2" ry="7.2" fill="#d3b3e6"/>
    <ellipse cx="0" cy="6.5" rx="5.2" ry="7.2" fill="#d3b3e6"/>
    <ellipse cx="-6.5" cy="0" rx="7.2" ry="5.2" fill="#d3b3e6"/>
    <ellipse cx="6.5" cy="0" rx="7.2" ry="5.2" fill="#d3b3e6"/>
    <circle cx="0" cy="0" r="2.3" fill="#f3e9dc"/>
  </g>
<g transform="translate(60.95,88.45) rotate(341.1) scale(1.00)">
    <ellipse cx="0" cy="-6.5" rx="5.2" ry="7.2" fill="#f0c8dd"/>
    <ellipse cx="0" cy="6.5" rx="5.2" ry="7.2" fill="#f0c8dd"/>
    <ellipse cx="-6.5" cy="0" rx="7.2" ry="5.2" fill="#f0c8dd"/>
    <ellipse cx="6.5" cy="0" rx="7.2" ry="5.2" fill="#f0c8dd"/>
    <circle cx="0" cy="0" r="2.3" fill="#f3e9dc"/>
  </g>
<g transform="translate(58.75,72.59) rotate(207.8) scale(1.00)">
    <ellipse cx="0" cy="-6.5" rx="5.2" ry="7.2" fill="#b9d1ec"/>
    <ellipse cx="0" cy="6.5" rx="5.2" ry="7.2" fill="#b9d1ec"/>
    <ellipse cx="-6.5" cy="0" rx="7.2" ry="5.2" fill="#b9d1ec"/>
    <ellipse cx="6.5" cy="0" rx="7.2" ry="5.2" fill="#b9d1ec"/>
    <circle cx="0" cy="0" r="2.3" fill="#f3e9dc"/>
  </g>
<g transform="translate(69.00,59.90) rotate(351.5) scale(1.00)">
    <ellipse cx="0" cy="-6.5" rx="5.2" ry="7.2" fill="#c9a8e0"/>
    <ellipse cx="0" cy="6.5" rx="5.2" ry="7.2" fill="#c9a8e0"/>
    <ellipse cx="-6.5" cy="0" rx="7.2" ry="5.2" fill="#c9a8e0"/>
    <ellipse cx="6.5" cy="0" rx="7.2" ry="5.2" fill="#c9a8e0"/>
    <circle cx="0" cy="0" r="2.3" fill="#f3e9dc"/>
  </g>
<g transform="translate(85.69,57.81) rotate(104.3) scale(1.00)">
    <ellipse cx="0" cy="-6.5" rx="5.2" ry="7.2" fill="#a9c6ec"/>
    <ellipse cx="0" cy="6.5" rx="5.2" ry="7.2" fill="#a9c6ec"/>
    <ellipse cx="-6.5" cy="0" rx="7.2" ry="5.2" fill="#a9c6ec"/>
    <ellipse cx="6.5" cy="0" rx="7.2" ry="5.2" fill="#a9c6ec"/>
    <circle cx="0" cy="0" r="2.3" fill="#f3e9dc"/>
  </g>
<g transform="translate(99.05,67.55) rotate(205.5) scale(1.00)">
    <ellipse cx="0" cy="-6.5" rx="5.2" ry="7.2" fill="#d3b3e6"/>
    <ellipse cx="0" cy="6.5" rx="5.2" ry="7.2" fill="#d3b3e6"/>
    <ellipse cx="-6.5" cy="0" rx="7.2" ry="5.2" fill="#d3b3e6"/>
    <ellipse cx="6.5" cy="0" rx="7.2" ry="5.2" fill="#d3b3e6"/>
    <circle cx="0" cy="0" r="2.3" fill="#f3e9dc"/>
  </g>
<g transform="translate(113.87,80.73) rotate(37.1) scale(0.82)">
    <ellipse cx="0" cy="-6.5" rx="5.2" ry="7.2" fill="#d3b3e6"/>
    <ellipse cx="0" cy="6.5" rx="5.2" ry="7.2" fill="#d3b3e6"/>
    <ellipse cx="-6.5" cy="0" rx="7.2" ry="5.2" fill="#d3b3e6"/>
    <ellipse cx="6.5" cy="0" rx="7.2" ry="5.2" fill="#d3b3e6"/>
    <circle cx="0" cy="0" r="2.3" fill="#f3e9dc"/>
  </g>
<g transform="translate(105.66,98.52) rotate(134.1) scale(0.82)">
    <ellipse cx="0" cy="-6.5" rx="5.2" ry="7.2" fill="#d3b3e6"/>
    <ellipse cx="0" cy="6.5" rx="5.2" ry="7.2" fill="#d3b3e6"/>
    <ellipse cx="-6.5" cy="0" rx="7.2" ry="5.2" fill="#d3b3e6"/>
    <ellipse cx="6.5" cy="0" rx="7.2" ry="5.2" fill="#d3b3e6"/>
    <circle cx="0" cy="0" r="2.3" fill="#f3e9dc"/>
  </g>
<g transform="translate(87.65,108.48) rotate(203.2) scale(0.82)">
    <ellipse cx="0" cy="-6.5" rx="5.2" ry="7.2" fill="#d3b3e6"/>
    <ellipse cx="0" cy="6.5" rx="5.2" ry="7.2" fill="#d3b3e6"/>
    <ellipse cx="-6.5" cy="0" rx="7.2" ry="5.2" fill="#d3b3e6"/>
    <ellipse cx="6.5" cy="0" rx="7.2" ry="5.2" fill="#d3b3e6"/>
    <circle cx="0" cy="0" r="2.3" fill="#f3e9dc"/>
  </g>
<g transform="translate(66.72,106.79) rotate(178.7) scale(0.82)">
    <ellipse cx="0" cy="-6.5" rx="5.2" ry="7.2" fill="#d3b3e6"/>
    <ellipse cx="0" cy="6.5" rx="5.2" ry="7.2" fill="#d3b3e6"/>
    <ellipse cx="-6.5" cy="0" rx="7.2" ry="5.2" fill="#d3b3e6"/>
    <ellipse cx="6.5" cy="0" rx="7.2" ry="5.2" fill="#d3b3e6"/>
    <circle cx="0" cy="0" r="2.3" fill="#efe1c9"/>
  </g>
<g transform="translate(50.86,94.11) rotate(279.8) scale(0.82)">
    <ellipse cx="0" cy="-6.5" rx="5.2" ry="7.2" fill="#b9d1ec"/>
    <ellipse cx="0" cy="6.5" rx="5.2" ry="7.2" fill="#b9d1ec"/>
    <ellipse cx="-6.5" cy="0" rx="7.2" ry="5.2" fill="#b9d1ec"/>
    <ellipse cx="6.5" cy="0" rx="7.2" ry="5.2" fill="#b9d1ec"/>
    <circle cx="0" cy="0" r="2.3" fill="#efe1c9"/>
  </g>
<g transform="translate(46.13,75.27) rotate(130.2) scale(0.82)">
    <ellipse cx="0" cy="-6.5" rx="5.2" ry="7.2" fill="#a9c6ec"/>
    <ellipse cx="0" cy="6.5" rx="5.2" ry="7.2" fill="#a9c6ec"/>
    <ellipse cx="-6.5" cy="0" rx="7.2" ry="5.2" fill="#a9c6ec"/>
    <ellipse cx="6.5" cy="0" rx="7.2" ry="5.2" fill="#a9c6ec"/>
    <circle cx="0" cy="0" r="2.3" fill="#f3e9dc"/>
  </g>
<g transform="translate(54.34,57.48) rotate(251.6) scale(0.82)">
    <ellipse cx="0" cy="-6.5" rx="5.2" ry="7.2" fill="#a9c6ec"/>
    <ellipse cx="0" cy="6.5" rx="5.2" ry="7.2" fill="#a9c6ec"/>
    <ellipse cx="-6.5" cy="0" rx="7.2" ry="5.2" fill="#a9c6ec"/>
    <ellipse cx="6.5" cy="0" rx="7.2" ry="5.2" fill="#a9c6ec"/>
    <circle cx="0" cy="0" r="2.3" fill="#f3e9dc"/>
  </g>
<g transform="translate(72.35,47.52) rotate(206.8) scale(0.82)">
    <ellipse cx="0" cy="-6.5" rx="5.2" ry="7.2" fill="#d3b3e6"/>
    <ellipse cx="0" cy="6.5" rx="5.2" ry="7.2" fill="#d3b3e6"/>
    <ellipse cx="-6.5" cy="0" rx="7.2" ry="5.2" fill="#d3b3e6"/>
    <ellipse cx="6.5" cy="0" rx="7.2" ry="5.2" fill="#d3b3e6"/>
    <circle cx="0" cy="0" r="2.3" fill="#efe1c9"/>
  </g>
<g transform="translate(93.28,49.21) rotate(315.0) scale(0.82)">
    <ellipse cx="0" cy="-6.5" rx="5.2" ry="7.2" fill="#f0c8dd"/>
    <ellipse cx="0" cy="6.5" rx="5.2" ry="7.2" fill="#f0c8dd"/>
    <ellipse cx="-6.5" cy="0" rx="7.2" ry="5.2" fill="#f0c8dd"/>
    <ellipse cx="6.5" cy="0" rx="7.2" ry="5.2" fill="#f0c8dd"/>
    <circle cx="0" cy="0" r="2.3" fill="#efe1c9"/>
  </g>
<g transform="translate(109.14,61.89) rotate(103.7) scale(0.82)">
    <ellipse cx="0" cy="-6.5" rx="5.2" ry="7.2" fill="#c9a8e0"/>
    <ellipse cx="0" cy="6.5" rx="5.2" ry="7.2" fill="#c9a8e0"/>
    <ellipse cx="-6.5" cy="0" rx="7.2" ry="5.2" fill="#c9a8e0"/>
    <ellipse cx="6.5" cy="0" rx="7.2" ry="5.2" fill="#c9a8e0"/>
    <circle cx="0" cy="0" r="2.3" fill="#f3e9dc"/>
  </g>
  </g>
</svg>